<svg width="150" height="48" viewBox="0 0 150 48" fill="none" xmlns="http://www.w3.org/2000/svg">
<path fill-rule="evenodd" clip-rule="evenodd" d="M6.66665 5.61035H10.641V29.548H5.64103V11.7194L2.43592 14.7117L0 11.0961L6.66665 5.61035Z" fill="#1F3C90"/>
<path fill-rule="evenodd" clip-rule="evenodd" d="M65.7689 20.8208L84.7432 45.2572L57.5639 0.124664L57.8203 0H58.2049H78.4612L113.717 45.5065L86.4099 0.124664L86.538 0H87.1791H107.307L144.358 47.8754L123.974 47.7507H123.589L89.1021 3.36623L115.64 47.626L115.256 47.8754H95.1278H94.7432L59.6151 2.49351L86.7945 47.626L86.538 47.7507H86.1534H66.2817H65.8971L48.4613 25.3091H38.7178C39.6152 22.4416 42.8203 20.8208 45.6408 20.8208H65.7689Z" fill="#E63612"/>
<path fill-rule="evenodd" clip-rule="evenodd" d="M51.9233 5.61035H40.1284C33.59 5.61035 16.7953 30.7948 12.5645 38.1506C9.61582 43.1377 9.61582 47.626 16.4107 47.626C26.1542 47.626 59.2309 47.626 59.2309 47.626C55.7694 43.013 52.1797 38.5247 48.7182 33.9117H40.5131L46.4105 40.6442H19.4876C16.026 40.6442 39.231 12.4675 40.6413 12.4675C57.1797 12.4675 55.8976 12.4675 55.8976 12.4675L51.9233 5.61035Z" fill="#1F3C90"/>
<path fill-rule="evenodd" clip-rule="evenodd" d="M130.385 5.73502C123.846 5.73502 107.051 30.9194 102.821 38.2753C99.872 43.2623 99.7438 47.8753 106.539 47.6259C110 47.5012 116.539 47.6259 123.59 47.6259L118.462 40.8935H110.513C107.051 40.8935 129.744 12.5922 131.154 12.5922H138.846L133.462 20.0727H142.308L147.692 12.5922V5.61035L130.385 5.73502ZM144.231 47.8753L138.974 41.1428H144.872L150 47.9999C150 47.8753 147.82 47.8753 144.231 47.8753Z" fill="#1F3C90"/>
</svg>
