<svg width="82" height="40" viewBox="0 0 82 40" fill="none" xmlns="http://www.w3.org/2000/svg">
<path d="M4.94359 15.7812C4.73279 15.7832 4.52525 15.7293 4.34202 15.625C4.20764 15.5495 4.08966 15.4479 3.99501 15.3262C3.90035 15.2045 3.83091 15.0652 3.79076 14.9163C3.7506 14.7675 3.74053 14.6121 3.76114 14.4594C3.78175 14.3066 3.83262 14.1594 3.91077 14.0266C5.41702 11.5125 9.99984 5.64453 19.9998 5.64453C24.3334 5.64453 28.1342 6.78281 31.2912 9.02656C33.8897 10.868 35.3459 12.9523 36.0397 13.9563C36.1277 14.0828 36.1894 14.2257 36.2214 14.3764C36.2533 14.5272 36.2548 14.6829 36.2257 14.8342C36.1965 14.9856 36.1374 15.1295 36.0518 15.2577C35.9662 15.3859 35.8558 15.4956 35.7272 15.5805C35.4642 15.7543 35.1439 15.8189 34.8342 15.7605C34.5244 15.7022 34.2495 15.5255 34.0678 15.268C32.8123 13.4625 28.9842 7.96875 19.9998 7.96875C11.2303 7.96875 7.26546 13.0242 5.97406 15.1922C5.87029 15.3732 5.72007 15.5233 5.53892 15.6268C5.35776 15.7304 5.15224 15.7837 4.94359 15.7812Z" fill="black"/>
<path d="M25.0383 38.75C24.9386 38.7511 24.8391 38.7399 24.7422 38.7164C17.4883 36.9195 14.7797 29.6679 14.6695 29.3664L14.6523 29.3C14.593 29.0906 13.1375 24.1179 15.3719 21.2054C16.3961 19.8773 17.9539 19.196 20.0109 19.196C21.9234 19.196 23.3031 19.7906 24.2516 21.021C25.0328 22.0257 25.3453 23.2648 25.6476 24.4585C26.2828 26.9445 26.7414 28.25 29.3812 28.3843C30.5406 28.4429 31.3023 27.7648 31.7344 27.1875C32.9023 25.6132 33.1055 23.0468 32.225 20.7812C31.0937 17.857 27.0789 12.3437 20 12.3437C16.9781 12.3437 14.2016 13.3148 11.975 15.1398C10.132 16.6515 8.67187 18.7859 7.96874 20.9796C6.66483 25.064 8.37499 31.4843 8.3914 31.5429C8.43133 31.6923 8.44093 31.8483 8.41965 32.0014C8.39837 32.1546 8.34663 32.302 8.26748 32.4349C8.18834 32.5678 8.08339 32.6835 7.95882 32.7752C7.83425 32.8668 7.69258 32.9326 7.54218 32.9687C7.23832 33.0495 6.9149 33.0081 6.64123 32.8533C6.36756 32.6985 6.16541 32.4426 6.07812 32.1406C5.99999 31.8476 4.17343 25 5.67968 20.2796C7.3203 15.1648 12.3836 10.0085 20.0023 10.0085C23.5234 10.0085 26.85 11.2054 29.6266 13.4656C31.7766 15.2234 33.5328 17.5843 34.4516 19.9445C35.6195 22.9578 35.3062 26.3398 33.6555 28.5492C32.5555 30.0226 30.9891 30.7929 29.2539 30.7093C24.7336 30.4828 23.9211 27.3273 23.3289 25.0257C22.7195 22.6648 22.3297 21.5265 20.0023 21.5265C18.7242 21.5265 17.8266 21.8781 17.268 22.6062C16.5062 23.6023 16.4469 25.1593 16.5312 26.289C16.5866 27.0761 16.7201 27.8557 16.9297 28.6164C17.1156 29.0851 19.5367 35.0226 25.3351 36.4593C25.485 36.4948 25.6263 36.5598 25.7509 36.6504C25.8755 36.7409 25.9808 36.8554 26.0607 36.987C26.1407 37.1187 26.1937 37.2649 26.2167 37.4172C26.2396 37.5695 26.2321 37.7248 26.1945 37.8742C26.1238 38.1263 25.9725 38.3484 25.7637 38.5065C25.5549 38.6647 25.3002 38.7501 25.0383 38.75Z" fill="black"/>
<path d="M15.7276 38.214C15.565 38.2143 15.404 38.1819 15.2542 38.1187C15.1044 38.0555 14.9689 37.9628 14.8557 37.846C11.9526 34.7992 10.3104 31.3921 9.6924 27.132V27.1093C9.34553 24.289 9.85334 20.296 12.3416 17.5507C14.1783 15.5249 16.7604 14.4952 20.0026 14.4952C23.8369 14.4952 26.8502 16.2781 28.7291 19.6429C30.0924 22.0874 30.3627 24.5234 30.3697 24.6234C30.384 24.7775 30.3678 24.933 30.3219 25.0809C30.276 25.2288 30.2014 25.3662 30.1023 25.4852C30.0033 25.6042 29.8817 25.7025 29.7446 25.7745C29.6075 25.8465 29.4576 25.8907 29.3033 25.9046C28.9922 25.9384 28.6802 25.8484 28.4348 25.6542C28.1894 25.4599 28.0302 25.1769 27.9916 24.8663C27.7858 23.4047 27.3129 21.9935 26.5963 20.7031C25.1401 18.1335 22.9244 16.8273 19.994 16.8273C17.4627 16.8273 15.4822 17.589 14.1197 19.0929C12.1557 21.2609 11.776 24.6007 12.0455 26.8101C12.5869 30.5773 14.0346 33.5741 16.5908 36.2523C16.6975 36.3633 16.7808 36.4946 16.8357 36.6384C16.8907 36.7822 16.9161 36.9356 16.9106 37.0895C16.905 37.2433 16.8686 37.3945 16.8035 37.534C16.7384 37.6735 16.6459 37.7985 16.5315 37.9015C16.3112 38.1012 16.0249 38.2125 15.7276 38.214Z" fill="black"/>
<path d="M29.1015 34.8578C26.5625 34.8578 24.4039 34.1547 22.6765 32.757C19.2062 29.9609 18.8171 25.407 18.8 25.2148C18.7755 24.8994 18.8774 24.5871 19.0832 24.3468C19.2889 24.1064 19.5818 23.9576 19.8972 23.9332C20.2127 23.9087 20.5249 24.0106 20.7653 24.2164C21.0056 24.4222 21.1544 24.715 21.1789 25.0305C21.1875 25.0977 21.5343 28.8227 24.2093 30.968C25.7921 32.232 27.9078 32.7336 30.5148 32.4406C30.8264 32.4028 31.1403 32.4899 31.3878 32.6829C31.6354 32.8758 31.7965 33.1589 31.8359 33.4703C31.853 33.6241 31.8392 33.7798 31.7955 33.9283C31.7517 34.0767 31.6789 34.215 31.5811 34.335C31.4834 34.4549 31.3627 34.5543 31.2262 34.6271C31.0897 34.7 30.94 34.745 30.7859 34.7594C30.2268 34.8246 29.6644 34.8575 29.1015 34.8578Z" fill="black"/>
<path d="M31.1077 3.81172C30.1171 3.16719 26.6046 1.25 19.9999 1.25C13.0671 1.25 9.546 3.36797 8.76709 3.90625C8.71565 3.93783 8.66749 3.97447 8.62334 4.01562C8.61868 4.02013 8.61261 4.02289 8.60615 4.02344C8.48177 4.13204 8.38197 4.2659 8.3134 4.41611C8.24483 4.56631 8.20907 4.72941 8.2085 4.89453C8.21063 5.04931 8.24329 5.20215 8.3046 5.34428C8.36591 5.48642 8.45466 5.61506 8.56578 5.72284C8.67689 5.83061 8.80818 5.9154 8.95212 5.97234C9.09605 6.02929 9.24982 6.05727 9.40459 6.05469C9.65266 6.05452 9.89475 5.97846 10.0983 5.83672C10.1319 5.81172 13.1624 3.58516 20.0022 3.58516C26.8421 3.58516 29.889 5.80391 29.9218 5.82031C30.1298 5.97456 30.3824 6.05683 30.6413 6.05469C30.7962 6.05706 30.9501 6.02882 31.094 5.97159C31.238 5.91436 31.3692 5.82926 31.4802 5.72117C31.5912 5.61309 31.6797 5.48415 31.7408 5.34175C31.8018 5.19936 31.8341 5.04632 31.8358 4.89141C31.8359 4.65937 31.7666 4.4326 31.6369 4.24022C31.5071 4.04784 31.3229 3.89862 31.1077 3.81172Z" fill="black"/>
<path d="M65 12L73 20L65 28" stroke="black" stroke-width="2" stroke-linecap="round" stroke-linejoin="round"/>
<path d="M73 20L49 20" stroke="black" stroke-width="2" stroke-linecap="round"/>
</svg>
