<svg width="24" height="24" viewBox="0 0 24 24" fill="none" xmlns="http://www.w3.org/2000/svg">
<path d="M11.3981 0.00367538C9.47212 0.0269254 5.33137 0.343425 3.01537 2.46818C1.29262 4.17518 0.691116 6.69893 0.620616 9.81968C0.562116 12.9292 0.491616 18.7687 6.12037 20.3587V22.7804C6.12037 22.7804 6.08512 23.7494 6.72562 23.9482C7.51462 24.1979 7.96387 23.4524 8.71387 22.6514L10.1126 21.0697C13.9639 21.3899 16.9136 20.6519 17.2534 20.5424C18.0349 20.2927 22.4366 19.7302 23.1559 13.8899C23.8939 7.85843 22.7966 4.05818 20.8159 2.33918H20.8039C20.2061 1.78868 17.8039 0.0381754 12.4369 0.0186754C12.4369 0.0186754 12.0386 -0.00832462 11.3981 0.00292538V0.00367538ZM11.4641 1.69943C12.0109 1.69568 12.3431 1.71893 12.3431 1.71893C16.8859 1.73093 19.0541 3.09818 19.5656 3.55868C21.2336 4.98818 22.0931 8.41418 21.4639 13.4497C20.8661 18.3322 17.2961 18.6412 16.6354 18.8519C16.3541 18.9419 13.7561 19.5824 10.4831 19.3717C10.4831 19.3717 8.04562 22.3132 7.28362 23.0707C7.16287 23.2034 7.02187 23.2424 6.93187 23.2229C6.80287 23.1914 6.76387 23.0317 6.77137 22.8127L6.79462 18.7934C2.02087 17.4734 2.30212 12.4927 2.35312 9.89093C2.41162 7.28918 2.89987 5.16068 4.35337 3.71918C6.31012 1.94993 9.82612 1.71143 11.4626 1.69943H11.4641ZM11.8241 4.30043C11.7848 4.30003 11.7458 4.30741 11.7094 4.32215C11.673 4.33689 11.6399 4.35869 11.6119 4.3863C11.5839 4.41391 11.5617 4.44678 11.5465 4.48302C11.5313 4.51925 11.5235 4.55813 11.5234 4.59743C11.5234 4.76543 11.6599 4.89818 11.8241 4.89818C12.5677 4.88403 13.3068 5.01725 13.9987 5.29014C14.6906 5.56304 15.3216 5.97021 15.8554 6.48818C16.9451 7.54643 17.4761 8.96843 17.4964 10.8277C17.4964 10.9919 17.6291 11.1284 17.7971 11.1284V11.1164C17.8763 11.1166 17.9523 11.0855 18.0087 11.0299C18.065 10.9742 18.0971 10.8986 18.0979 10.8194C18.1343 9.94429 17.9924 9.07088 17.6807 8.2523C17.3691 7.43371 16.8943 6.68705 16.2851 6.05768C15.0979 4.89743 13.5934 4.29967 11.8241 4.29967V4.30043ZM7.87087 4.98818C7.65858 4.95716 7.44207 4.99977 7.25737 5.10892H7.24162C6.81281 5.36028 6.42653 5.67797 6.09712 6.05018C5.82337 6.36668 5.67487 6.68693 5.63587 6.99518C5.61262 7.17893 5.62837 7.36268 5.68312 7.53818L5.70262 7.55018C6.01087 8.45618 6.41362 9.32768 6.90562 10.1482C7.53938 11.3009 8.31933 12.367 9.22612 13.3199L9.25312 13.3589L9.29587 13.3904L9.32287 13.4219L9.35437 13.4489C10.3108 14.3584 11.3794 15.142 12.5344 15.7807C13.8544 16.4992 14.6554 16.8389 15.1361 16.9799V16.9874C15.2771 17.0302 15.4054 17.0497 15.5344 17.0497C15.9441 17.0197 16.332 16.8533 16.6361 16.5772C17.0066 16.2477 17.3208 15.8598 17.5661 15.4289V15.4214C17.7964 14.9879 17.7184 14.5777 17.3861 14.3002C16.7207 13.7185 16.0012 13.2019 15.2374 12.7574C14.7259 12.4799 14.2061 12.6479 13.9954 12.9292L13.5461 13.4954C13.3159 13.7767 12.8974 13.7377 12.8974 13.7377L12.8854 13.7452C9.76462 12.9479 8.93212 9.78818 8.93212 9.78818C8.93212 9.78818 8.89312 9.35843 9.18187 9.13943L9.74437 8.68643C10.0136 8.46743 10.2011 7.94843 9.91237 7.43618C9.47092 6.67129 8.95544 5.95159 8.37337 5.28743C8.24611 5.13085 8.06759 5.02432 7.86937 4.98668L7.87087 4.98818ZM12.3431 5.87918C11.9449 5.87918 11.9449 6.48068 12.3469 6.48068C12.8421 6.48871 13.3309 6.59425 13.7853 6.79128C14.2397 6.9883 14.6508 7.27294 14.9951 7.62893C15.3092 7.97543 15.5506 8.38146 15.7049 8.82296C15.8593 9.26445 15.9234 9.73243 15.8936 10.1992C15.895 10.2782 15.9272 10.3535 15.9834 10.409C16.0397 10.4645 16.1154 10.4958 16.1944 10.4962L16.2064 10.5119C16.2859 10.5113 16.3621 10.4795 16.4184 10.4232C16.4747 10.3669 16.5065 10.2908 16.5071 10.2112C16.5341 9.01943 16.1636 8.01968 15.4369 7.21868C14.7064 6.41768 13.6871 5.96843 12.3859 5.87918H12.3431ZM12.8359 7.49618C12.4256 7.48418 12.4099 8.09768 12.8164 8.10968C13.8049 8.16068 14.2849 8.66018 14.3479 9.68768C14.3492 9.76567 14.3811 9.84003 14.4366 9.89484C14.4921 9.94965 14.5669 9.98055 14.6449 9.98093H14.6569C14.697 9.97921 14.7363 9.96951 14.7726 9.95242C14.809 9.93532 14.8415 9.91116 14.8684 9.88135C14.8953 9.85154 14.9159 9.81667 14.9292 9.77878C14.9425 9.74089 14.948 9.70074 14.9456 9.66068C14.8751 8.32118 14.1446 7.56668 12.8479 7.49693H12.8359V7.49618Z" fill="white"/>
</svg>
